<?xml version="1.0" encoding="UTF-8" standalone="no"?>
<svg
   xmlns:dc="http://purl.org/dc/elements/1.1/"
   xmlns:cc="http://creativecommons.org/ns#"
   xmlns:rdf="http://www.w3.org/1999/02/22-rdf-syntax-ns#"
   xmlns:svg="http://www.w3.org/2000/svg"
   xmlns="http://www.w3.org/2000/svg"
   xmlns:sodipodi="http://sodipodi.sourceforge.net/DTD/sodipodi-0.dtd"
   xmlns:inkscape="http://www.inkscape.org/namespaces/inkscape"
   xml:space="preserve"
   width="342.48795"
   height="60.540646"
   version="1.1"
   style="clip-rule:evenodd;fill-rule:evenodd;image-rendering:optimizeQuality;shape-rendering:geometricPrecision;text-rendering:geometricPrecision"
   viewBox="0 0 342.48795 60.540646"
   id="svg49"
   sodipodi:docname="kvintanaka-2-logo.svg"
   inkscape:version="1.0.2 (e86c870879, 2021-01-15, custom)"><metadata
   id="metadata53"><rdf:RDF><cc:Work
       rdf:about=""><dc:format>image/svg+xml</dc:format><dc:type
         rdf:resource="http://purl.org/dc/dcmitype/StillImage" /><dc:title></dc:title></cc:Work></rdf:RDF></metadata><sodipodi:namedview
   pagecolor="#ffffff"
   bordercolor="#666666"
   borderopacity="1"
   objecttolerance="10"
   gridtolerance="10"
   guidetolerance="10"
   inkscape:pageopacity="0"
   inkscape:pageshadow="2"
   inkscape:window-width="1920"
   inkscape:window-height="1001"
   id="namedview51"
   showgrid="false"
   inkscape:zoom="1.7161017"
   inkscape:cx="39.427514"
   inkscape:cy="38.189248"
   inkscape:window-x="2391"
   inkscape:window-y="-9"
   inkscape:window-maximized="1"
   inkscape:current-layer="g135"
   fit-margin-top="0"
   fit-margin-left="0"
   fit-margin-right="0"
   fit-margin-bottom="0"
   inkscape:document-rotation="0" />
 <defs
   id="defs4"><style
     type="text/css"
     id="style2">
   <![CDATA[
    .fil4 {fill:#660066}
    .fil5 {fill:#CC3300}
    .fil6 {fill:#FF6666}
    .fil1 {fill:black;fill-rule:nonzero}
    .fil0 {fill:black;fill-rule:nonzero}
    .fil2 {fill:#3300CC;fill-rule:nonzero}
    .fil3 {fill:#6699FF;fill-rule:nonzero}
   ]]>
  </style></defs>
 
<g
   id="g135"
   transform="translate(-5.1733087,-27.299568)"><g
     aria-label="K  VIN"
     id="text62"
     style="font-style:normal;font-variant:normal;font-weight:400;font-size:50.202px;line-height:125%;font-family:'Century Gothic';text-align:start;letter-spacing:0px;word-spacing:0px;text-anchor:start;fill:#000000;fill-opacity:1;stroke:none;stroke-width:57.3737"><path
       d="M 5.1733087,27.299568 H 8.850213 V 40.830575 L 23.239165,27.299568 h 4.878026 L 10.786716,43.477947 29.46539,63.357742 H 24.685414 L 8.850213,46.542033 V 63.357742 H 5.1733087 Z"
       style="font-style:normal;font-variant:normal;font-weight:400;font-size:50.202px;font-family:'Century Gothic';fill:#000000;stroke-width:57.3737"
       id="path849" /><path
       d="m 59.885643,27.299568 h 3.922031 L 75.745357,55.170502 87.903653,27.299568 h 3.922032 L 76.13756,63.357742 h -0.784406 z"
       style="font-style:normal;font-variant:normal;font-weight:400;font-size:50.202px;font-family:'Century Gothic';fill:#000000;stroke-width:57.3737"
       id="path851" /><path
       d="m 97.365558,27.299568 h 3.603362 v 36.058174 h -3.603362 z"
       style="font-style:normal;font-variant:normal;font-weight:400;font-size:50.202px;font-family:'Century Gothic';fill:#000000;stroke-width:57.3737"
       id="path853" /><path
       d="M 109.25421,63.357742 V 27.299568 h 0.78441 l 23.97341,27.601294 V 27.299568 h 3.55434 v 36.058174 h -0.80892 L 112.98014,36.099625 v 27.258117 z"
       style="font-style:normal;font-variant:normal;font-weight:400;font-size:50.202px;font-family:'Century Gothic';fill:#000000;stroke-width:57.3737"
       id="path855" /></g><g
     aria-label="TANAKA"
     id="text68"
     style="font-style:normal;font-variant:normal;font-weight:700;font-size:50.202px;line-height:125%;font-family:'Century Gothic';text-align:start;letter-spacing:0px;word-spacing:0px;text-anchor:start;fill:#000000;fill-opacity:1;stroke:none;stroke-width:57.3737"><path
       d="m 148.66719,27.299568 h 19.92882 v 6.765504 h -6.56941 v 29.29267 h -6.9616 v -29.29267 h -6.39781 z"
       style="font-style:normal;font-variant:normal;font-weight:700;font-size:50.202px;font-family:'Century Gothic';fill:#000000;stroke-width:57.3737"
       id="path907" /><path
       d="m 184.28413,27.299568 h 6.96161 l 13.87418,36.058174 h -7.13319 l -2.81896,-7.427346 h -14.70762 l -2.94152,7.427346 h -7.1332 z m 3.52983,9.559951 -4.80449,12.378911 h 9.58446 z"
       style="font-style:normal;font-variant:normal;font-weight:700;font-size:50.202px;font-family:'Century Gothic';fill:#000000;stroke-width:57.3737"
       id="path909" /><path
       d="m 210.46369,27.299568 h 6.5694 L 232.5006,51.027857 V 27.299568 h 6.86356 v 36.058174 h -6.59392 L 217.32725,39.702991 v 23.654751 h -6.86356 z"
       style="font-style:normal;font-variant:normal;font-weight:700;font-size:50.202px;font-family:'Century Gothic';fill:#000000;stroke-width:57.3737"
       id="path911" /><path
       d="m 258.5576,27.299568 h 6.9616 l 13.87419,36.058174 h -7.13319 l -2.81896,-7.427346 h -14.70762 l -2.94152,7.427346 h -7.1332 z m 3.52983,9.559951 -4.80449,12.378911 h 9.58446 z"
       style="font-style:normal;font-variant:normal;font-weight:700;font-size:50.202px;font-family:'Century Gothic';fill:#000000;stroke-width:57.3737"
       id="path913" /><path
       d="m 284.76167,27.299568 h 6.93709 v 12.403423 l 9.78057,-12.403423 h 8.26078 l -12.59953,16.080328 13.82516,19.977846 h -8.13821 l -11.12877,-16.00679 v 16.00679 h -6.93709 z"
       style="font-style:normal;font-variant:normal;font-weight:700;font-size:50.202px;font-family:'Century Gothic';fill:#000000;stroke-width:57.3737"
       id="path915" /><path
       d="m 326.82545,27.299568 h 6.96161 l 13.87418,36.058174 h -7.13319 l -2.81896,-7.427346 h -14.70762 l -2.94152,7.427346 h -7.1332 z m 3.52983,9.559951 -4.80449,12.378911 h 9.58447 z"
       style="font-style:normal;font-variant:normal;font-weight:700;font-size:50.202px;font-family:'Century Gothic';fill:#000000;stroke-width:57.3737"
       id="path917" /></g><g
     aria-label="SOFTWARE"
     id="text90"
     style="font-style:normal;font-variant:normal;font-weight:400;font-size:20.8444px;line-height:125%;font-family:'Century Gothic';text-align:start;letter-spacing:0px;word-spacing:0px;text-anchor:start;fill:#000000;fill-opacity:1;stroke:none;stroke-width:55.585"><path
       d="m 5.4839263,84.674878 1.2722412,-0.763345 q 1.3434868,2.473237 3.1042686,2.473237 0.7531669,0 1.4147319,-0.34605 0.661566,-0.356227 1.007615,-0.946547 0.34605,-0.59032 0.34605,-1.251885 0,-0.753167 -0.508896,-1.4758 Q 11.417659,81.367051 9.5550982,79.962496 7.6823591,78.547764 7.2243523,77.916732 6.4304738,76.858228 6.4304738,75.626698 q 0,-0.977081 0.4681847,-1.781138 0.4681848,-0.804056 1.312953,-1.262063 0.8549461,-0.468185 1.8523835,-0.468185 1.058504,0 1.974518,0.529253 0.926192,0.519074 1.954163,1.923629 l -1.221352,0.926191 q -0.844768,-1.119572 -1.445266,-1.4758 -0.59032,-0.356227 -1.292597,-0.356227 -0.9058358,0 -1.4859778,0.549608 -0.5699641,0.549608 -0.5699641,1.353665 0,0.48854 0.2035586,0.946547 0.2035586,0.458007 0.7429889,0.997437 0.29516,0.284982 1.9338064,1.496156 1.943985,1.435088 2.666618,2.55466 0.722633,1.119573 0.722633,2.249323 0,1.628469 -1.241708,2.829464 -1.231529,1.200996 -3.002489,1.200996 -1.3638424,0 -2.4732368,-0.722633 Q 6.4202958,86.38477 5.4839263,84.674878 Z"
       style="font-style:normal;font-variant:normal;font-weight:400;font-size:20.8444px;font-family:'Century Gothic';fill:#3300cc;stroke-width:55.585"
       id="path890" /><path
       d="m 24.547189,72.115312 q 3.399429,0 5.689463,2.269679 2.290034,2.269678 2.290034,5.587683 0,3.287472 -2.290034,5.577506 -2.279856,2.290034 -5.567328,2.290034 -3.328183,0 -5.618217,-2.279856 -2.290034,-2.279857 -2.290034,-5.516438 0,-2.157721 1.038149,-3.999927 1.048327,-1.842205 2.84982,-2.880354 1.801494,-1.048327 3.898147,-1.048327 z m 0.07125,1.465622 q -1.659003,0 -3.144981,0.865124 -1.485977,0.865124 -2.320568,2.330746 -0.83459,1.465622 -0.83459,3.267116 0,2.666617 1.842205,4.508823 1.852384,1.832027 4.457934,1.832027 1.740426,0 3.216226,-0.844768 1.485977,-0.844768 2.31039,-2.31039 0.83459,-1.465622 0.83459,-3.256938 0,-1.781137 -0.83459,-3.216226 -0.824413,-1.445266 -2.330746,-2.31039 -1.506334,-0.865124 -3.19587,-0.865124 z"
       style="font-style:normal;font-variant:normal;font-weight:400;font-size:20.8444px;font-family:'Century Gothic';fill:#3300cc;stroke-width:55.585"
       id="path892" /><path
       d="m 35.529175,72.491896 h 7.501134 v 1.4758 h -6.015156 v 4.681847 h 6.015156 v 1.4758 h -6.015156 v 7.338288 h -1.485978 z"
       style="font-style:normal;font-variant:normal;font-weight:400;font-size:20.8444px;font-family:'Century Gothic';fill:#3300cc;stroke-width:55.585"
       id="path894" /><path
       d="m 44.149883,73.94734 v -1.455444 h 8.213589 V 73.94734 H 49.025111 V 87.463631 H 47.498422 V 73.94734 Z"
       style="font-style:normal;font-variant:normal;font-weight:400;font-size:20.8444px;font-family:'Century Gothic';fill:#3300cc;stroke-width:55.585"
       id="path896" /><path
       d="m 53.666245,72.491896 h 1.536867 L 58.246313,83.280501 62.5414,72.491896 h 0.305338 l 4.244196,10.788605 3.104269,-10.788605 h 1.52669 L 67.426806,87.463631 H 67.141824 L 62.704247,76.135595 58.175068,87.463631 h -0.284982 z"
       style="font-style:normal;font-variant:normal;font-weight:400;font-size:20.8444px;font-family:'Century Gothic';fill:#3300cc;stroke-width:55.585"
       id="path898" /><path
       d="m 80.63776,72.491896 6.98206,14.971735 h -1.608113 l -2.351101,-4.926118 h -6.452808 l -2.340924,4.926118 h -1.66918 l 7.073661,-14.971735 z m -0.183202,3.175514 -2.575017,5.424837 h 5.119499 z"
       style="font-style:normal;font-variant:normal;font-weight:400;font-size:20.8444px;font-family:'Century Gothic';fill:#3300cc;stroke-width:55.585"
       id="path900" /><path
       d="m 90.021811,72.491896 h 2.982134 q 2.493593,0 3.379072,0.203558 1.333309,0.305338 2.1679,1.312953 0.83459,0.997437 0.83459,2.463059 0,1.221352 -0.580142,2.147544 -0.569964,0.926191 -1.638647,1.404554 -1.068683,0.468185 -2.9516,0.478363 l 5.384125,6.961704 H 97.74686 l -5.373947,-6.961704 h -0.854946 v 6.961704 h -1.496156 z m 1.496156,1.465622 v 5.088965 l 2.575016,0.02036 q 1.496156,0 2.208611,-0.284983 0.722633,-0.284982 1.119572,-0.905835 0.407117,-0.631032 0.407117,-1.404555 0,-0.753166 -0.407117,-1.363842 -0.407117,-0.620854 -1.068682,-0.88548 -0.661566,-0.264626 -2.198433,-0.264626 z"
       style="font-style:normal;font-variant:normal;font-weight:400;font-size:20.8444px;font-family:'Century Gothic';fill:#3300cc;stroke-width:55.585"
       id="path902" /><path
       d="m 102.60173,72.491896 h 8.58 v 1.4758 h -7.08384 v 4.681847 h 7.02277 v 1.465622 h -7.02277 v 5.872666 h 7.02277 v 1.4758 h -8.51893 z"
       style="font-style:normal;font-variant:normal;font-weight:400;font-size:20.8444px;font-family:'Century Gothic';fill:#3300cc;stroke-width:55.585"
       id="path904" /></g><text
     xml:space="preserve"
     style="font-style:normal;font-variant:normal;font-weight:400;font-size:20.8444px;line-height:125%;font-family:'Century Gothic';text-align:start;letter-spacing:0px;word-spacing:0px;text-anchor:start;fill:#000000;fill-opacity:1;stroke:none;stroke-width:55.585"
     x="116.45116"
     y="87.463631"
     id="text96"><tspan
       sodipodi:role="line"
       x="116.45116"
       y="87.463631"
       id="tspan94"
       style="stroke-width:55.585"><tspan
         dx="0"
         dy="0"
         style="font-style:normal;font-variant:normal;font-weight:400;font-size:20.8444px;font-family:'Century Gothic';fill:#000000;stroke-width:55.585"
         id="tspan92"> </tspan></tspan></text><g
     aria-label="DEVELOPER"
     id="text102"
     style="font-style:normal;font-variant:normal;font-weight:400;font-size:20.8444px;line-height:125%;font-family:'Century Gothic';text-align:start;letter-spacing:0px;word-spacing:0px;text-anchor:start;fill:#000000;fill-opacity:1;stroke:none;stroke-width:55.585"><path
       d="M 124.56974,87.463631 V 72.491896 h 3.10426 q 3.35872,0 4.87523,0.53943 2.17808,0.763345 3.39943,2.646262 1.23153,1.882917 1.23153,4.488467 0,2.249322 -0.97708,3.959215 -0.9669,1.709892 -2.52413,2.524126 -1.54704,0.814235 -4.34597,0.814235 z m 1.43508,-1.414733 h 1.73025 q 3.10427,0 4.30527,-0.386761 1.68953,-0.549608 2.65644,-1.974518 0.9669,-1.435088 0.9669,-3.501208 0,-2.167899 -1.04833,-3.704767 -1.04832,-1.536867 -2.92106,-2.106831 -1.40456,-0.427473 -4.63096,-0.427473 h -1.05851 z"
       style="font-style:normal;font-variant:normal;font-weight:400;font-size:20.8444px;font-family:'Century Gothic';fill:#6699ff;stroke-width:55.585"
       id="path871" /><path
       d="m 140.09108,72.491896 h 8.57999 v 1.4758 h -7.08383 v 4.681847 h 7.02277 v 1.465622 h -7.02277 v 5.872666 h 7.02277 v 1.4758 h -8.51893 z"
       style="font-style:normal;font-variant:normal;font-weight:400;font-size:20.8444px;font-family:'Century Gothic';fill:#6699ff;stroke-width:55.585"
       id="path873" /><path
       d="m 150.11634,72.491896 h 1.62847 l 4.95665,11.572306 5.04825,-11.572306 h 1.62847 l -6.51387,14.971735 h -0.3257 z"
       style="font-style:normal;font-variant:normal;font-weight:400;font-size:20.8444px;font-family:'Century Gothic';fill:#6699ff;stroke-width:55.585"
       id="path875" /><path
       d="m 165.90231,72.491896 h 8.57999 v 1.4758 h -7.08383 v 4.681847 h 7.02277 v 1.465622 h -7.02277 v 5.872666 h 7.02277 v 1.4758 h -8.51893 z"
       style="font-style:normal;font-variant:normal;font-weight:400;font-size:20.8444px;font-family:'Century Gothic';fill:#6699ff;stroke-width:55.585"
       id="path877" /><path
       d="m 177.0675,72.491896 h 1.50633 v 13.526469 h 5.75053 v 1.445266 h -7.25686 z"
       style="font-style:normal;font-variant:normal;font-weight:400;font-size:20.8444px;font-family:'Century Gothic';fill:#6699ff;stroke-width:55.585"
       id="path879" /><path
       d="m 193.83055,72.115312 q 3.39943,0 5.68946,2.269679 2.29004,2.269678 2.29004,5.587683 0,3.287472 -2.29004,5.577506 -2.27986,2.290034 -5.56733,2.290034 -3.32818,0 -5.61821,-2.279856 -2.29004,-2.279857 -2.29004,-5.516438 0,-2.157721 1.03815,-3.999927 1.04833,-1.842205 2.84982,-2.880354 1.80149,-1.048327 3.89815,-1.048327 z m 0.0712,1.465622 q -1.659,0 -3.14498,0.865124 -1.48597,0.865124 -2.32056,2.330746 -0.83459,1.465622 -0.83459,3.267116 0,2.666617 1.8422,4.508823 1.85238,1.832027 4.45793,1.832027 1.74043,0 3.21623,-0.844768 1.48598,-0.844768 2.31039,-2.31039 0.83459,-1.465622 0.83459,-3.256938 0,-1.781137 -0.83459,-3.216226 -0.82441,-1.445266 -2.33075,-2.31039 -1.50633,-0.865124 -3.19587,-0.865124 z"
       style="font-style:normal;font-variant:normal;font-weight:400;font-size:20.8444px;font-family:'Century Gothic';fill:#6699ff;stroke-width:55.585"
       id="path881" /><path
       d="m 204.80236,72.491896 h 2.98213 q 2.56484,0 3.4605,0.223914 1.28241,0.315516 2.09665,1.302775 0.81423,0.977082 0.81423,2.463059 0,1.496156 -0.79387,2.473237 -0.79388,0.966904 -2.18826,1.302775 -1.01779,0.244271 -3.80655,0.244271 h -1.06868 v 6.961704 h -1.49615 z m 1.49615,1.455444 v 5.088965 l 2.53431,0.03053 q 1.53686,0 2.24932,-0.274805 0.71245,-0.284982 1.11957,-0.905835 0.40712,-0.631032 0.40712,-1.404555 0,-0.753166 -0.40712,-1.37402 -0.40712,-0.631032 -1.07886,-0.895658 -0.66156,-0.264626 -2.17808,-0.264626 z"
       style="font-style:normal;font-variant:normal;font-weight:400;font-size:20.8444px;font-family:'Century Gothic';fill:#6699ff;stroke-width:55.585"
       id="path883" /><path
       d="m 217.15837,72.491896 h 8.57999 v 1.4758 h -7.08384 v 4.681847 h 7.02277 v 1.465622 h -7.02277 v 5.872666 h 7.02277 v 1.4758 h -8.51892 z"
       style="font-style:normal;font-variant:normal;font-weight:400;font-size:20.8444px;font-family:'Century Gothic';fill:#6699ff;stroke-width:55.585"
       id="path885" /><path
       d="m 228.40497,72.491896 h 2.98214 q 2.49359,0 3.37907,0.203558 1.33331,0.305338 2.1679,1.312953 0.83459,0.997437 0.83459,2.463059 0,1.221352 -0.58014,2.147544 -0.56997,0.926191 -1.63865,1.404554 -1.06868,0.468185 -2.9516,0.478363 l 5.38413,6.961704 h -1.85239 l -5.37394,-6.961704 h -0.85495 v 6.961704 h -1.49616 z m 1.49616,1.465622 v 5.088965 l 2.57502,0.02036 q 1.49615,0 2.20861,-0.284983 0.72263,-0.284982 1.11957,-0.905835 0.40712,-0.631032 0.40712,-1.404555 0,-0.753166 -0.40712,-1.363842 -0.40712,-0.620854 -1.06868,-0.88548 -0.66157,-0.264626 -2.19844,-0.264626 z"
       style="font-style:normal;font-variant:normal;font-weight:400;font-size:20.8444px;font-family:'Century Gothic';fill:#6699ff;stroke-width:55.585"
       id="path887" /></g></g><path
   style="fill:#660066;fill-opacity:1;fill-rule:evenodd;stroke:none;stroke-width:3.04896"
   d="m 27.742902,0.40316315 h 19.456806 l 3.569,3.80910005 v 0.115434 H 27.742902 Z"
   id="path140" /><path
   style="fill:#cc3300;fill-opacity:1;fill-rule:evenodd;stroke:none;stroke-width:3.04896"
   d="m 27.742902,32.030239 h 23.025806 v 0.115434 l -3.453872,3.809094 H 27.742902 Z"
   id="path142" /><path
   style="fill:#ff6666;fill-opacity:1;fill-rule:evenodd;stroke:none;stroke-width:3.04896"
   d="M 27.858031,20.025801 H 50.883837 V 16.101274 H 27.858031 Z"
   id="path144" /></svg>
