<?xml version="1.0" encoding="UTF-8" standalone="no"?>
<svg
   xmlns:dc="http://purl.org/dc/elements/1.1/"
   xmlns:cc="http://creativecommons.org/ns#"
   xmlns:rdf="http://www.w3.org/1999/02/22-rdf-syntax-ns#"
   xmlns:svg="http://www.w3.org/2000/svg"
   xmlns="http://www.w3.org/2000/svg"
   xmlns:sodipodi="http://sodipodi.sourceforge.net/DTD/sodipodi-0.dtd"
   xmlns:inkscape="http://www.inkscape.org/namespaces/inkscape"
   version="1.1"
   id="svg833"
   xml:space="preserve"
   width="624.82129"
   height="672.95996"
   viewBox="0 0 624.82128 672.95996"
   sodipodi:docname="C_Reversed.svg"
   inkscape:version="1.0.2 (e86c870879, 2021-01-15, custom)"><metadata
     id="metadata839"><rdf:RDF><cc:Work
         rdf:about=""><dc:format>image/svg+xml</dc:format><dc:type
           rdf:resource="http://purl.org/dc/dcmitype/StillImage" /><dc:title></dc:title></cc:Work></rdf:RDF></metadata><defs
     id="defs837"><clipPath
       clipPathUnits="userSpaceOnUse"
       id="clipPath849"><path
         d="M 0,634.812 H 794.869 V 0 H 0 Z"
         id="path847" /></clipPath></defs><sodipodi:namedview
     pagecolor="#ffffff"
     bordercolor="#666666"
     borderopacity="1"
     objecttolerance="10"
     gridtolerance="10"
     guidetolerance="10"
     inkscape:pageopacity="0"
     inkscape:pageshadow="2"
     inkscape:window-width="2400"
     inkscape:window-height="1271"
     id="namedview835"
     showgrid="false"
     fit-margin-top="0"
     fit-margin-left="0"
     fit-margin-right="0"
     fit-margin-bottom="0"
     inkscape:zoom="0.79918831"
     inkscape:cx="312.41066"
     inkscape:cy="333.97746"
     inkscape:window-x="-9"
     inkscape:window-y="-9"
     inkscape:window-maximized="1"
     inkscape:current-layer="g841" /><g
     id="g841"
     inkscape:groupmode="layer"
     inkscape:label="C_Reversed"
     transform="matrix(1.3333333,0,0,-1.3333333,-217.50199,759.68865)"><g
       id="g843"><g
         id="g845"
         clip-path="url(#clipPath849)"><g
           id="g851"
           transform="translate(613.9785,172.4605)"><path
             d="M 0,0 C -0.777,-0.245 -1.53,-0.562 -2.228,-1 L -94.104,101.744 -1.236,74.933 C -0.84,71.87 0.985,69.286 3.57,67.842 Z m -4.975,-3.628 -102.781,51.871 c 0.774,1.38 1.252,2.948 1.252,4.644 0,3.459 -1.854,6.461 -4.605,8.14 l 10.43,37.253 c 1.409,0.193 2.724,0.665 3.867,1.402 L -4.713,-3.311 c -0.084,-0.11 -0.183,-0.202 -0.262,-0.317 m -49.014,-48.868 c -1.435,0.861 -3.094,1.385 -4.888,1.385 -0.669,0 -1.32,-0.071 -1.95,-0.201 l -51.169,95.578 c 0.731,0.346 1.398,0.789 2.014,1.3 L -6.367,-6.725 c -0.495,-1.944 -0.384,-3.972 0.328,-5.811 z m -10.287,-0.292 -109.786,93.962 c 0.608,0.793 1.085,1.677 1.422,2.638 l 48.938,3.375 c 1.743,-2.332 4.501,-3.862 7.637,-3.862 0.236,0 0.458,0.052 0.689,0.07 l 51.398,-96.006 c -0.097,-0.061 -0.203,-0.111 -0.298,-0.177 m -3.331,-4.014 h -99.675 c -1.037,3.731 -4.256,6.514 -8.212,6.916 l -5.517,87.344 c 1.62,0.105 3.128,0.595 4.428,1.408 L -66.69,-55.187 c -0.356,-0.505 -0.664,-1.045 -0.917,-1.615 m -26.619,-31.214 c -1.115,0.455 -2.33,0.716 -3.609,0.716 -4.319,0 -7.927,-2.883 -9.113,-6.816 h -97.948 c -0.355,0.833 -0.855,1.577 -1.418,2.27 l 25.024,24.287 c 1.423,-0.84 3.061,-1.354 4.833,-1.354 3.448,0 6.444,1.842 8.127,4.58 h 100.623 c 0.004,-0.007 0.005,-0.016 0.008,-0.024 z m -114.67,-1.612 c -1.416,0.829 -3.043,1.337 -4.803,1.337 -2.308,0 -4.397,-0.85 -6.048,-2.211 L -388.543,13.691 c 0.312,0.944 0.522,1.935 0.522,2.984 0,2.7 -1.128,5.128 -2.928,6.867 l 15.66,25.193 c 0.805,-0.219 1.635,-0.375 2.509,-0.375 1.915,0 3.691,0.577 5.187,1.547 L -186.01,-59.256 c 0,-0.033 -0.009,-0.063 -0.009,-0.095 0,-2.276 0.829,-4.339 2.157,-5.981 z M -393.767,25.435 c -0.924,0.403 -1.934,0.626 -2.983,0.718 l -39.841,176.729 c 2.89,1.645 4.862,4.717 4.862,8.28 0,2.922 -1.338,5.505 -3.404,7.259 l 12.373,30.932 44.614,-183.519 c -2.531,-1.719 -4.196,-4.621 -4.196,-7.912 0,-3.185 1.573,-5.987 3.968,-7.725 z m -18.388,231.694 119.129,-34.175 c 0,-0.015 -0.004,-0.029 -0.004,-0.044 0,-3.025 1.431,-5.688 3.624,-7.441 L -368.911,66.653 c -0.583,0.259 -1.194,0.464 -1.832,0.602 l -45.296,186.328 c 1.606,0.801 2.95,2.025 3.884,3.546 m 39.189,94.999 c 0.028,0 0.053,-0.007 0.08,-0.007 3.466,0 6.472,1.861 8.15,4.622 l 87.382,-43.472 c -0.682,-1.439 -0.969,-2.993 -0.896,-4.534 l -133.644,-42.125 c -0.533,0.992 -1.223,1.874 -2.058,2.617 z m 9.596,9.1 60.151,19.753 c 1.731,-1.73 4.119,-2.799 6.759,-2.799 0.459,0 0.898,0.072 1.341,0.135 l 21.04,-61.253 c -0.441,-0.298 -0.855,-0.634 -1.248,-1.012 l -88.175,43.866 c 0.08,0.426 0.111,0.867 0.132,1.31 m 73.173,19.343 77.879,-56.984 c -0.291,-0.558 -0.525,-1.143 -0.703,-1.759 l -48.166,-6.805 c -0.446,0.576 -0.944,1.122 -1.535,1.599 -2.403,1.945 -5.456,2.496 -8.247,1.825 l -20.932,60.94 c 0.613,0.336 1.182,0.728 1.704,1.184 m 83.665,-13.923 c 0.537,-2.88 2.375,-5.273 4.871,-6.622 l -2.85,-31.333 c -2.204,-0.148 -4.193,-1.027 -5.737,-2.419 l -75.254,55.064 z m 8.18,-7.682 c 0.399,-0.051 0.792,-0.121 1.205,-0.121 0.903,0 1.759,0.165 2.587,0.399 l 43.048,-64.134 -42.862,23.45 c 0.015,0.214 0.064,0.418 0.064,0.636 0,4.324 -2.889,7.935 -6.828,9.117 z m 99.238,-53.632 c 0,-0.02 -0.006,-0.038 -0.006,-0.058 0,-0.576 0.071,-1.134 0.169,-1.682 l -36.593,-12.456 c -1.73,2.456 -4.576,4.07 -7.809,4.07 -1.293,0 -2.524,-0.263 -3.65,-0.729 l -43.849,65.327 z m 3.904,-7.734 -21.302,-53.682 c -0.334,0.036 -0.659,0.102 -1.004,0.102 -0.7,0 -1.38,-0.086 -2.037,-0.229 l -16.648,35.566 c 1.481,1.685 2.41,3.869 2.41,6.289 0,0.831 -0.139,1.623 -0.338,2.391 l 36.376,12.383 c 0.655,-1.104 1.514,-2.062 2.543,-2.82 m 5.651,-1.886 c 0.188,0 0.363,0.045 0.548,0.056 l 58.258,-84.043 -77.228,22.45 c 0.002,0.095 0.028,0.184 0.028,0.281 0,3.735 -2.163,6.935 -5.285,8.509 l 21.089,53.148 c 0.829,-0.235 1.686,-0.401 2.59,-0.401 M -54.968,172.34 c -1.007,0.36 -2.075,0.591 -3.206,0.591 -2.864,0 -5.404,-1.285 -7.157,-3.281 l -75.716,24.01 c -0.208,2.073 -1.056,3.941 -2.373,5.409 l 21.121,27.155 c 1.412,-0.823 3.031,-1.328 4.783,-1.328 2.409,0 4.582,0.92 6.263,2.389 L -32.175,204.3 c 0.146,-1.454 0.65,-2.804 1.386,-4.007 z m -95.546,29.933 c -0.247,0 -0.478,-0.054 -0.72,-0.073 l -17.179,32.794 c 0.95,1.485 1.517,3.24 1.517,5.134 0,2.353 -0.881,4.479 -2.291,6.145 l 21.207,31.055 c 1.376,-0.768 2.939,-1.244 4.627,-1.244 0.122,0 0.234,0.032 0.355,0.036 l 17.256,-36.866 c -0.827,-1.415 -1.335,-3.039 -1.335,-4.796 0,-2.299 0.845,-4.379 2.196,-6.029 l -21.221,-27.283 c -1.325,0.696 -2.811,1.127 -4.412,1.127 m -25.943,47.417 c -1.909,0 -3.678,-0.574 -5.171,-1.538 l -34.996,20.223 c 0.019,0.241 0.072,0.473 0.072,0.719 0,3.387 -1.771,6.346 -4.428,8.045 l 14.899,32.777 c 0.712,-0.169 1.445,-0.282 2.21,-0.282 2.315,0 4.41,0.857 6.064,2.226 l 45.05,-24.651 c -0.085,-0.511 -0.158,-1.027 -0.158,-1.563 0,-2.358 0.887,-4.49 2.303,-6.157 l -21.203,-31.05 c -1.38,0.773 -2.948,1.251 -4.642,1.251 m -49.656,28.966 c -3.739,0 -6.941,-2.166 -8.513,-5.292 h -35.989 l 4.963,26.799 c 1.65,0.561 3.173,1.557 4.35,3.011 1.091,1.348 1.714,2.909 1.968,4.507 l 47.257,6.679 c 0.728,-1.233 1.694,-2.307 2.879,-3.104 l -14.916,-32.817 c -0.646,0.138 -1.313,0.217 -1.999,0.217 m -59.799,-46.539 c -2.984,-0.792 -5.386,-2.967 -6.471,-5.82 l -118.519,34 c 0.113,0.589 0.183,1.193 0.183,1.814 0,0.436 -0.072,0.852 -0.129,1.272 l 133.369,42.039 c 0.594,-1.38 1.48,-2.656 2.73,-3.667 0.489,-0.396 1.009,-0.728 1.545,-1.012 z m 15.154,-123.596 c -2.414,-1.735 -4.001,-4.551 -4.001,-7.751 0,-0.495 0.073,-0.971 0.147,-1.446 l -89.626,-37.185 c -0.479,0.966 -1.088,1.854 -1.85,2.601 l 79.598,148.99 z m 8.22,-16.892 79.484,-143.875 -180.341,108.416 c 0.106,0.569 0.177,1.152 0.177,1.752 0,0.318 -0.063,0.618 -0.094,0.929 l 89.813,37.262 c 1.638,-2.913 4.722,-4.905 8.303,-4.905 0.928,0 1.809,0.174 2.658,0.421 m 71.4,-44.135 c -0.009,-0.181 -0.053,-0.353 -0.053,-0.537 0,-4.297 2.853,-7.89 6.755,-9.095 l 5.558,-87.999 c -0.425,-0.112 -0.851,-0.222 -1.251,-0.388 l -78.765,142.574 z m 50.979,18.139 c 3.702,1.319 6.368,4.82 6.368,8.974 0,1.268 -0.259,2.471 -0.706,3.578 l 26.304,22.319 c 0.084,-0.072 0.17,-0.141 0.255,-0.211 l -10.707,-38.241 c -3.476,-0.978 -6.15,-3.839 -6.809,-7.438 l -16.252,-1.12 z M 17.764,76.159 c 0,5.281 -4.282,9.562 -9.562,9.562 -2.988,0 -5.623,-1.399 -7.376,-3.547 l -93.38,26.957 c -0.691,4.602 -4.625,8.142 -9.419,8.142 -5.281,0 -9.561,-4.281 -9.561,-9.562 0,-0.053 0.014,-0.102 0.015,-0.155 l -28.358,-24.062 c -1.08,0.423 -2.246,0.675 -3.476,0.675 -5.281,0 -9.562,-4.281 -9.562,-9.562 0,-3.713 2.139,-6.896 5.231,-8.48 l -1.679,-13.161 -23.806,-1.642 c -1.591,3.072 -4.763,5.195 -8.461,5.195 -2.331,0 -4.438,-0.867 -6.098,-2.253 l -68.082,44.765 c 0.104,0.566 0.175,1.143 0.175,1.739 0,4.662 -3.339,8.533 -7.754,9.38 l -15.604,104.359 c 3.013,1.61 5.086,4.747 5.086,8.401 0,3.436 -1.828,6.424 -4.55,8.11 l 6.447,34.814 h 36.943 c 1.338,-3.668 4.823,-6.302 8.954,-6.302 2.281,0 4.347,0.832 5.991,2.165 l 34.281,-19.806 c -0.107,-0.573 -0.178,-1.159 -0.178,-1.763 0,-5.281 4.281,-9.562 9.562,-9.562 0.606,0 1.196,0.071 1.771,0.179 l 16.782,-32.037 c -1.337,-1.644 -2.171,-3.713 -2.171,-5.997 0,-5.281 4.281,-9.562 9.561,-9.562 2.888,0 5.445,1.307 7.198,3.33 l 75.67,-23.992 c 0.452,-4.861 4.494,-8.679 9.472,-8.679 5.281,0 9.563,4.28 9.563,9.561 0,1.374 -0.302,2.673 -0.824,3.854 l 24.839,28.723 c 0.307,-0.064 0.6,-0.159 0.918,-0.193 5.251,-0.561 9.962,3.242 10.523,8.493 0.56,5.251 -3.242,9.962 -8.493,10.523 -0.695,0.074 -1.376,0.062 -2.043,-0.01 l -58.539,84.443 c 1.374,1.656 2.233,3.754 2.233,6.074 0,5.281 -4.28,9.562 -9.562,9.562 -2.51,0 -4.776,-0.988 -6.482,-2.571 l -91.714,54.456 c 0.098,0.549 0.17,1.107 0.17,1.684 0,5.28 -4.281,9.561 -9.562,9.561 -3.274,0 -6.158,-1.649 -7.881,-4.157 l -82.023,15.455 c -0.733,4.552 -4.649,8.04 -9.409,8.04 -5.194,0 -9.399,-4.148 -9.536,-9.309 L -366,368.292 c -1.74,1.813 -4.175,2.952 -6.886,2.952 -5.281,0 -9.562,-4.281 -9.562,-9.562 0,-2.519 0.994,-4.794 2.588,-6.502 l -41.331,-83.598 c -4.847,-0.465 -8.652,-4.501 -8.652,-9.471 0,-2.096 0.694,-4.018 1.838,-5.594 l -14.36,-35.902 c -4.768,-0.54 -8.487,-4.54 -8.487,-9.453 0,-4.286 2.838,-7.87 6.724,-9.085 l 40.196,-178.302 c -1.957,-1.75 -3.213,-4.268 -3.213,-7.1 0,-5.281 4.282,-9.562 9.562,-9.562 1.412,0 2.741,0.324 3.946,0.873 l 170.439,-105.21 c -0.014,-0.212 -0.063,-0.413 -0.063,-0.628 0,-5.281 4.281,-9.562 9.562,-9.562 3.931,0 7.302,2.376 8.771,5.768 h 98.86 c 1.656,-2.845 4.704,-4.778 8.233,-4.778 5.281,0 9.563,4.281 9.563,9.562 0,1.227 -0.252,2.391 -0.673,3.468 l 26.689,23.804 c 1.054,-0.4 2.185,-0.645 3.379,-0.645 5.28,0 9.562,4.281 9.562,9.563 0,0.713 -0.091,1.403 -0.24,2.072 l 48.801,40.668 c 4.119,-1.688 8.991,-0.307 11.563,3.536 2.936,4.389 1.758,10.328 -2.63,13.264 -0.217,0.145 -0.452,0.235 -0.676,0.36 l 3.57,67.856 c 3.868,1.225 6.691,4.801 6.691,9.075"
             style="fill:#ffffff;fill-opacity:1;fill-rule:nonzero;stroke:none"
             id="path853" /></g></g></g></g></svg>
